<?xml version="1.0" encoding="UTF-8"?>
<svg width="28px" height="28px" viewBox="0 0 28 28" version="1.1" xmlns="http://www.w3.org/2000/svg" xmlns:xlink="http://www.w3.org/1999/xlink">
    <!-- Generator: Sketch 63.1 (92452) - https://sketch.com -->
    <title>Stroke 1</title>
    <desc>Created with Sketch.</desc>
    <defs>
        <path d="M20.2339946,24 L5.76600537,24 C3.68608618,24 2,22.3139138 2,20.2339946 L2,5.76600537 C2,3.68608618 3.68608618,2 5.76600537,2 L20.2339946,2 C22.3137317,2 24,3.68608618 24,5.76600537 L24,20.2339946 C24,22.3139138 22.3137317,24 20.2339946,24 Z" id="path-1"></path>
        <filter x="-18.2%" y="-18.2%" width="145.5%" height="145.5%" filterUnits="objectBoundingBox" id="filter-2">
            <feOffset dx="1" dy="1" in="SourceAlpha" result="shadowOffsetOuter1"></feOffset>
            <feGaussianBlur stdDeviation="1.5" in="shadowOffsetOuter1" result="shadowBlurOuter1"></feGaussianBlur>
            <feColorMatrix values="0 0 0 0 0.894117647   0 0 0 0 0.933333333   0 0 0 0 0.980392157  0 0 0 1 0" type="matrix" in="shadowBlurOuter1"></feColorMatrix>
        </filter>
    </defs>
    <g id="问答系统修改" stroke="none" stroke-width="1" fill="none" fill-rule="evenodd">
        <g id="Stroke-1">
            <use fill="black" fill-opacity="1" filter="url(#filter-2)" xlink:href="#path-1"></use>
            <use fill="#FFFFFF" fill-rule="evenodd" xlink:href="#path-1"></use>
        </g>
        <g id="Category" transform="translate(5.000000, 5.000000)" fill="#94AAE1" fill-rule="nonzero">
            <path d="M5.13111329,8.27306667 C6.5356976,8.27306667 7.6706434,9.41824001 7.6706434,10.8296533 L7.6706434,13.4434133 C7.67289602,14.1192002 7.40661332,14.7682088 6.93036092,15.2476626 C6.45410851,15.7271165 5.8068991,15.9977406 5.13111329,16 L2.53954429,16 C1.86375848,15.9977406 1.21654906,15.7271165 0.740296658,15.2476626 C0.264044252,14.7682088 -0.00223843887,14.1192002 1.4176415e-05,13.4434133 L1.4176415e-05,10.8296533 C1.4176415e-05,9.41823999 1.13495998,8.27306667 2.53954429,8.27306667 L5.13111329,8.27306667 Z M13.4613376,8.27306667 C14.8642152,8.27306667 16,9.41909333 16,10.8296533 L16,13.4434133 C16,14.8539733 14.8650686,16 13.4613376,16 L10.8689152,16 C10.1931294,15.9977406 9.54592002,15.7271165 9.06966761,15.2476626 C8.59341521,14.7682088 8.32713252,14.1192002 8.32938513,13.4434133 L8.32938513,10.8296533 C8.32938513,9.41823999 9.46433093,8.27306667 10.8689152,8.27306667 L13.4613376,8.27306667 Z M5.13111329,9.46346667 L2.53954429,9.46346667 C2.1795481,9.46572218 1.83520615,9.61095589 1.58233145,9.86719201 C1.32945675,10.1234281 1.18878223,10.4696581 1.19124718,10.8296533 L1.19124718,13.4434133 C1.19124718,14.1994667 1.79543887,14.8087467 2.53954429,14.8087467 L5.13111329,14.8087467 C5.49096065,14.8064906 5.83517257,14.6613742 6.08802272,14.405323 C6.34087288,14.1492717 6.481648,13.8032612 6.47940474,13.4434133 L6.47940474,10.8296533 C6.481648,10.4698055 6.34087287,10.1237949 6.08802272,9.86774369 C5.83517256,9.61169247 5.49096065,9.46657608 5.13111329,9.46432001 L5.13111329,9.46346667 Z M13.4613376,9.46346667 L10.8689152,9.46346667 C10.5089191,9.46572218 10.1645771,9.61095589 9.91170241,9.86719201 C9.65882771,10.1234281 9.51815319,10.4696581 9.52061814,10.8296533 L9.52061814,13.4434133 C9.52061814,14.1994667 10.1248098,14.8087467 10.8689152,14.8087467 L13.4613376,14.8087467 C14.2037363,14.8087467 14.809629,14.1994667 14.809629,13.4434133 L14.809629,10.8296533 C14.8118723,10.4698055 14.6710972,10.1237949 14.418247,9.86774368 C14.1653968,9.61169246 13.8211849,9.46657608 13.4613376,9.46432001 L13.4613376,9.46346667 Z M13.4613376,-1.94004812e-12 C14.8650686,-1.94004812e-12 16,1.14602668 16,2.55658668 L16,5.1712 C16,6.58090665 14.8642152,7.72693333 13.4613376,7.72693333 L10.8689152,7.72693333 C9.46518425,7.72693333 8.32938513,6.58090667 8.32938513,5.1712 L8.32938513,2.55658668 C8.32713252,1.88079977 8.59341521,1.23179119 9.06966761,0.752337355 C9.54592002,0.272883524 10.1931294,0.0022593967 10.8689152,-1.94004812e-12 L13.4613376,-1.94004812e-12 Z M5.13111329,-1.94004812e-12 C5.8068991,0.0022593967 6.45410851,0.272883524 6.93036092,0.752337355 C7.40661332,1.23179119 7.67289602,1.88079977 7.6706434,2.55658668 L7.6706434,5.1712 C7.6706434,6.58090665 6.53484428,7.72693333 5.13111329,7.72693333 L2.53954429,7.72693333 C1.13495998,7.72693333 1.4176415e-05,6.58090667 1.4176415e-05,5.1712 L1.4176415e-05,2.55658668 C-0.00223843887,1.88079977 0.264044252,1.23179119 0.740296658,0.752337355 C1.21654906,0.272883524 1.86375848,0.0022593967 2.53954429,-1.94004812e-12 L5.13111329,-1.94004812e-12 Z M13.4613376,1.1904 L10.8689152,1.1904 C10.5090679,1.19265608 10.164856,1.33777247 9.91200581,1.59382369 C9.65915565,1.84987491 9.51838053,2.19588547 9.5206238,2.55573334 L9.5206238,5.1712 C9.5206238,5.92554666 10.1248098,6.53653333 10.8689152,6.53653333 L13.4613376,6.53653333 C14.2037363,6.53653333 14.809602,5.92554668 14.809602,5.1712 L14.809602,2.55658668 C14.809602,1.80053334 14.2037363,1.19125334 13.4613376,1.19125334 L13.4613376,1.1904 Z M5.13111329,1.1904 L2.53954429,1.1904 C2.17969693,1.19265608 1.83548501,1.33777247 1.58263485,1.59382369 C1.3297847,1.84987491 1.18900957,2.19588547 1.19125284,2.55573334 L1.19125284,5.1712 C1.19125284,5.92554666 1.79629221,6.53653333 2.53954429,6.53653333 L5.13111329,6.53653333 C5.87521871,6.53653333 6.4793777,5.92554668 6.4793777,5.1712 L6.4793777,2.55658668 C6.4793777,1.80053334 5.87521871,1.19125334 5.13111329,1.19125334 L5.13111329,1.1904 Z" id="形状"></path>
        </g>
    </g>
</svg>