<?xml version="1.0" encoding="UTF-8"?>
<svg width="28px" height="28px" viewBox="0 0 28 28" version="1.1" xmlns="http://www.w3.org/2000/svg" xmlns:xlink="http://www.w3.org/1999/xlink">
    <!-- Generator: Sketch 63.1 (92452) - https://sketch.com -->
    <title>Stroke 1</title>
    <desc>Created with Sketch.</desc>
    <defs>
        <path d="M20.2339946,24 L5.76600537,24 C3.68608618,24 2,22.3139138 2,20.2339946 L2,5.76600537 C2,3.68608618 3.68608618,2 5.76600537,2 L20.2339946,2 C22.3137317,2 24,3.68608618 24,5.76600537 L24,20.2339946 C24,22.3139138 22.3137317,24 20.2339946,24 Z" id="path-1"></path>
        <filter x="-18.2%" y="-18.2%" width="145.5%" height="145.5%" filterUnits="objectBoundingBox" id="filter-2">
            <feOffset dx="1" dy="1" in="SourceAlpha" result="shadowOffsetOuter1"></feOffset>
            <feGaussianBlur stdDeviation="1.5" in="shadowOffsetOuter1" result="shadowBlurOuter1"></feGaussianBlur>
            <feColorMatrix values="0 0 0 0 0.894117647   0 0 0 0 0.933333333   0 0 0 0 0.980392157  0 0 0 1 0" type="matrix" in="shadowBlurOuter1"></feColorMatrix>
        </filter>
    </defs>
    <g id="问答系统修改" stroke="none" stroke-width="1" fill="none" fill-rule="evenodd">
        <g id="Stroke-1">
            <use fill="black" fill-opacity="1" filter="url(#filter-2)" xlink:href="#path-1"></use>
            <use fill="#FFFFFF" fill-rule="evenodd" xlink:href="#path-1"></use>
        </g>
        <g id="地理信息" transform="translate(5.000000, 5.000000)" fill="#94AAE1" fill-rule="nonzero">
            <path d="M15.371867,4.8859335 C14.968798,3.93248082 14.3918159,3.07723785 13.657289,2.342711 C12.9227621,1.60818414 12.0675192,1.03120205 11.1140665,0.628132992 C10.1278772,0.210741688 9.08030691,0 8,0 C6.91969309,0 5.87212276,0.210741688 4.8859335,0.628132992 C3.93248082,1.03120205 3.07723785,1.60818414 2.342711,2.342711 C1.60818414,3.07723785 1.03120205,3.93248082 0.628132992,4.8859335 C0.210741688,5.87212276 0,6.91969309 0,8 C0,9.08030691 0.210741688,10.1278772 0.628132992,11.1140665 C1.03120205,12.0675192 1.60818414,12.9227621 2.342711,13.657289 C3.07723785,14.3918159 3.93248082,14.968798 4.8859335,15.371867 C5.87212276,15.7892583 6.91969309,16 8,16 C9.08030691,16 10.1278772,15.7892583 11.1140665,15.371867 C12.0675192,14.968798 12.9227621,14.3918159 13.657289,13.657289 C14.3918159,12.9227621 14.968798,12.0675192 15.371867,11.1140665 C15.7892583,10.1278772 16,9.08030691 16,8 C16,6.91969309 15.7892583,5.87212276 15.371867,4.8859335 Z M8.29882812,5.01171875 C9.19140625,4.98828125 10.0742188,4.85742188 10.9277344,4.62695312 C10.9433594,4.62304688 10.9589844,4.63085937 10.9628906,4.64648438 C11.2871094,5.62304687 11.4707031,6.6484375 11.5019531,7.69140625 C11.5019531,7.70703125 11.4882812,7.72070312 11.4726562,7.72070312 L8.29882812,7.72070312 C8.28320312,7.72070312 8.26953125,7.70703125 8.26953125,7.69140625 L8.26953125,5.04101562 C8.26953125,5.02539062 8.28125,5.01367188 8.29882812,5.01171875 Z M8.26953125,4.42578125 L8.26953125,1.234375 C8.26953125,1.21679687 8.28320312,1.20507812 8.30078125,1.20507812 C8.57226562,1.21679687 8.83984375,1.24414062 9.10351562,1.28710937 C9.11132812,1.2890625 9.1171875,1.29296875 9.12109375,1.296875 C9.80664062,2.13671875 10.3535156,3.0703125 10.75,4.0625 C10.7558594,4.078125 10.7480469,4.09765625 10.7304687,4.1015625 C9.94140625,4.31054687 9.125,4.4296875 8.30078125,4.453125 C8.28320312,4.45507812 8.26953125,4.44335937 8.26953125,4.42578125 Z M7.68359375,4.45507812 C6.86523438,4.43164062 6.05664062,4.3125 5.2734375,4.10351562 C5.25585938,4.09960938 5.24804687,4.08007813 5.25390625,4.06445312 C5.65039062,3.0703125 6.19726562,2.13671875 6.88085938,1.296875 C6.88476562,1.29101562 6.89257812,1.28710938 6.8984375,1.28710938 C7.15625,1.24414063 7.41796875,1.21679688 7.68359375,1.20507813 C7.70117187,1.20507813 7.71484375,1.21679688 7.71484375,1.234375 L7.71484375,4.42578125 C7.71289062,4.44140625 7.69921875,4.45507812 7.68359375,4.45507812 Z M7.71289063,5.04101562 L7.71289063,7.69335938 C7.71289063,7.70898438 7.69921875,7.72265625 7.68359375,7.72265625 L4.52929688,7.72265625 C4.51367188,7.72265625 4.5,7.70898438 4.5,7.69335938 C4.53125,6.65234375 4.71484375,5.62695312 5.0390625,4.6484375 C5.04492188,4.6328125 5.05859375,4.625 5.07421875,4.62890625 C5.921875,4.859375 6.79882813,4.98828125 7.68359375,5.01367187 C7.70117188,5.01171875 7.71289063,5.02539062 7.71289063,5.04101562 L7.71289063,5.04101562 Z M3.9140625,7.72070312 L1.234375,7.72070312 C1.21679688,7.72070312 1.20507812,7.70703125 1.20507812,7.68945312 C1.2734375,6.1875 1.83007812,4.8125 2.71875,3.71679687 C2.72851562,3.70507812 2.7421875,3.703125 2.75585938,3.70898437 C3.31054687,4.00390625 3.88867188,4.25195312 4.484375,4.44921875 C4.5,4.45507812 4.5078125,4.47070312 4.50195312,4.48632812 C4.16015625,5.51953125 3.97265625,6.59570312 3.94140625,7.69335937 C3.94140625,7.70898437 3.9296875,7.72070312 3.9140625,7.72070312 L3.9140625,7.72070312 Z M3.94140625,8.30664062 C3.97070312,9.40429688 4.15820312,10.4804688 4.50195312,11.5136719 C4.5078125,11.5292969 4.49804688,11.5449219 4.484375,11.5507812 C3.88867188,11.7480469 3.31054687,11.9941406 2.75585938,12.2910156 C2.74414062,12.296875 2.72851562,12.2949219 2.71875,12.2832031 C1.828125,11.1875 1.27148438,9.8125 1.20507812,8.31054688 C1.20507812,8.29296875 1.21679688,8.27929688 1.234375,8.27929688 L3.91210937,8.27929688 C3.9296875,8.27929688 3.94140625,8.29101563 3.94140625,8.30664062 Z M4.52929688,8.27929688 L7.68359375,8.27929688 C7.69921875,8.27929688 7.71289062,8.29296875 7.71289062,8.30859375 L7.71289062,10.9609375 C7.71289062,10.9765625 7.70117188,10.9902344 7.68359375,10.9902344 C6.796875,11.015625 5.91992188,11.1445313 5.07226563,11.375 C5.05664062,11.3789063 5.04101562,11.3710938 5.03710938,11.3554688 C4.71289062,10.3789063 4.52929688,9.35351563 4.49804688,8.31054688 C4.49804688,8.29296875 4.51171875,8.27929688 4.52929688,8.27929688 L4.52929688,8.27929688 Z M7.71289062,11.5742188 L7.71289062,14.765625 C7.71289062,14.7832031 7.69921875,14.7949219 7.68164062,14.7949219 C7.41601562,14.7832031 7.15429687,14.7558594 6.89648437,14.7128906 C6.88867187,14.7109375 6.8828125,14.7070313 6.87890625,14.703125 C6.1953125,13.8632813 5.6484375,12.9296875 5.25195312,11.9375 C5.24609375,11.921875 5.25390625,11.9023438 5.27148437,11.8984375 C6.05664062,11.6894531 6.86523437,11.5722656 7.68359375,11.546875 C7.69921875,11.5449219 7.71289062,11.5585938 7.71289062,11.5742188 L7.71289062,11.5742188 Z M8.29882812,11.5449219 C9.12304687,11.5683594 9.9375,11.6875 10.7285156,11.8964844 C10.7460937,11.9003906 10.7539062,11.9199219 10.7480469,11.9355469 C10.3515625,12.9277344 9.8046875,13.8613281 9.11914062,14.7011719 C9.11523437,14.7070312 9.10742187,14.7109375 9.1015625,14.7109375 C8.83789062,14.7539063 8.5703125,14.78125 8.29882812,14.7929688 C8.28125,14.7929688 8.26757812,14.78125 8.26757812,14.7636719 L8.26757812,11.5742188 C8.26953125,11.5566406 8.28320312,11.5449219 8.29882812,11.5449219 Z M8.26953125,10.9589844 L8.26953125,8.30664062 C8.26953125,8.29101563 8.28320312,8.27734375 8.29882812,8.27734375 L11.4707031,8.27734375 C11.4863281,8.27734375 11.5,8.29101563 11.5,8.30664062 C11.4709166,9.34258963 11.2892765,10.3685927 10.9609375,11.3515625 C10.9550781,11.3671875 10.9414062,11.375 10.9257812,11.3710938 C10.0722656,11.140625 9.18945312,11.0097656 8.296875,10.9863281 C8.28125,10.9863281 8.26953125,10.9746094 8.26953125,10.9589844 L8.26953125,10.9589844 Z M12.0859375,8.27929688 L14.7636719,8.27929688 C14.78125,8.27929688 14.7929687,8.29296875 14.7929687,8.31054688 C14.7246094,9.8125 14.1699219,11.1875 13.2792969,12.2832031 C13.2695312,12.2949219 13.2558594,12.296875 13.2421875,12.2910156 C12.6875,11.9960938 12.109375,11.7480469 11.5136719,11.5527344 C11.4980469,11.546875 11.4902344,11.53125 11.4960937,11.515625 C11.8378906,10.4824219 12.0253906,9.40625 12.0566406,8.30859375 C12.0585938,8.29101562 12.0703125,8.27929688 12.0859375,8.27929688 L12.0859375,8.27929688 Z M12.0585937,7.69335937 C12.0292969,6.59570312 11.8417969,5.51953125 11.5,4.48632812 C11.4941406,4.47070312 11.5039062,4.45507812 11.5175781,4.44921875 C12.1113281,4.25195312 12.6894531,4.00585938 13.2460937,3.70898438 C13.2578125,3.703125 13.2734375,3.70507813 13.2832031,3.71679688 C14.1738281,4.8125 14.7304687,6.1875 14.796875,7.68945312 C14.796875,7.70703125 14.7851562,7.72070313 14.7675781,7.72070313 L12.0859375,7.72070313 C12.0703125,7.72070313 12.0585937,7.70898438 12.0585937,7.69335938 L12.0585937,7.69335937 Z M12.8496094,3.2890625 C12.359375,3.54101562 11.8496094,3.75390625 11.3261719,3.92773437 C11.3105469,3.93164062 11.2949219,3.92578125 11.2890625,3.91015625 C10.9609375,3.07617188 10.5351562,2.2890625 10.0195312,1.55859375 C10.0039062,1.53515625 10.0253906,1.50585937 10.0527344,1.51367187 C11.1269531,1.85351562 12.0878906,2.45507812 12.8574219,3.2421875 C12.8710938,3.25585937 12.8671875,3.27929687 12.8496094,3.2890625 L12.8496094,3.2890625 Z M5.98046875,1.55859375 C5.46289062,2.2890625 5.0390625,3.07617188 4.7109375,3.91015625 C4.70507812,3.92382812 4.68945312,3.93164062 4.67382812,3.92773437 C4.15039062,3.75585937 3.640625,3.54296875 3.15039062,3.29101562 C3.1328125,3.28125 3.12890625,3.2578125 3.14257812,3.24414062 C3.9140625,2.45703125 4.87304687,1.85742187 5.94726562,1.515625 C5.97460937,1.50585937 5.99804688,1.53710937 5.98046875,1.55859375 L5.98046875,1.55859375 Z M3.15039062,12.7109375 C3.640625,12.4589844 4.15039062,12.2460938 4.67382812,12.0722656 C4.68945312,12.0683594 4.70507812,12.0742188 4.7109375,12.0898438 C5.0390625,12.9238281 5.46484375,13.7109375 5.98046875,14.4414062 C5.99609375,14.4648438 5.97460937,14.4941406 5.94726562,14.4863281 C4.87304687,14.1464844 3.91210937,13.5449219 3.14257812,12.7578125 C3.12890625,12.7441406 3.1328125,12.71875 3.15039062,12.7109375 L3.15039062,12.7109375 Z M10.0195312,14.4414062 C10.5351562,13.7128906 10.9609375,12.9257812 11.2890625,12.0917969 C11.2949219,12.078125 11.3105469,12.0703125 11.3261719,12.0742187 C11.8496094,12.2460937 12.359375,12.4589844 12.8496094,12.7109375 C12.8671875,12.7207031 12.8710937,12.7441406 12.8574219,12.7578125 C12.0859375,13.5449219 11.1269531,14.1445312 10.0527344,14.4863281 C10.0253906,14.4941406 10.0039062,14.4628906 10.0195312,14.4414062 L10.0195312,14.4414062 Z" id="形状"></path>
        </g>
    </g>
</svg>