<?xml version="1.0" encoding="UTF-8"?>
<svg width="28px" height="28px" viewBox="0 0 28 28" version="1.1" xmlns="http://www.w3.org/2000/svg" xmlns:xlink="http://www.w3.org/1999/xlink">
    <!-- Generator: Sketch 63.1 (92452) - https://sketch.com -->
    <title>Stroke 1</title>
    <desc>Created with Sketch.</desc>
    <defs>
        <path d="M20.2339946,24 L5.76600537,24 C3.68608618,24 2,22.3139138 2,20.2339946 L2,5.76600537 C2,3.68608618 3.68608618,2 5.76600537,2 L20.2339946,2 C22.3137317,2 24,3.68608618 24,5.76600537 L24,20.2339946 C24,22.3139138 22.3137317,24 20.2339946,24 Z" id="path-1"></path>
        <filter x="-18.2%" y="-18.2%" width="145.5%" height="145.5%" filterUnits="objectBoundingBox" id="filter-2">
            <feOffset dx="1" dy="1" in="SourceAlpha" result="shadowOffsetOuter1"></feOffset>
            <feGaussianBlur stdDeviation="1.5" in="shadowOffsetOuter1" result="shadowBlurOuter1"></feGaussianBlur>
            <feColorMatrix values="0 0 0 0 0.894117647   0 0 0 0 0.933333333   0 0 0 0 0.980392157  0 0 0 1 0" type="matrix" in="shadowBlurOuter1"></feColorMatrix>
        </filter>
    </defs>
    <g id="问答系统修改" stroke="none" stroke-width="1" fill="none" fill-rule="evenodd">
        <g id="Stroke-1">
            <use fill="black" fill-opacity="1" filter="url(#filter-2)" xlink:href="#path-1"></use>
            <use fill="#FFFFFF" fill-rule="evenodd" xlink:href="#path-1"></use>
        </g>
        <g id="数值框" transform="translate(5.000000, 5.000000)" fill="#94AAE1" fill-rule="nonzero">
            <path d="M2.8570018,16 L13.1463488,16 C14.7175028,15.9946018 15.9904772,14.6624745 15.9977044,13.0161469 L15.9977044,2.9937138 C15.9956408,1.34353567 14.7211622,0.0054267976 13.1463488,0 L2.8570018,0 C1.27998301,0.00217288804 0.00207366016,1.3412322 0,2.9937138 L0,13.0161469 C0.00724439092,14.6647764 1.28364391,15.9978482 2.8570018,16 Z M1.30428342,13.0161469 L1.30428342,2.9937138 C1.30532046,2.09558686 1.99988904,1.36778208 2.8570018,1.36669542 L13.1463488,1.36669542 C14.0034616,1.36778208 14.6980302,2.09558686 14.6990672,2.9937138 L14.6990672,13.0161469 C14.6980302,13.9142739 14.0034616,14.6420786 13.1463488,14.6431653 L2.8570018,14.6431653 C1.99988904,14.6420786 1.30532046,13.9142739 1.30428342,13.0161469 Z" id="形状"></path>
            <path d="M3.69829283,4.65250885 C3.5543954,4.91349909 3.36288496,5.14522672 3.13366798,5.33570493 C2.84781564,5.58754977 2.52705294,5.79674283 2.18133404,5.95679228 L2.07217324,6.00760851 L2.07217324,7.05404658 L2.33001859,6.96370662 C2.59128156,6.8600297 2.84315243,6.73409427 3.08285174,6.58729004 C3.21459755,6.51012464 3.33505084,6.43107716 3.44421165,6.35391175 L3.44421165,10.4888478 L4.50006014,10.4888478 L4.50006014,4.5471122 L3.75099115,4.5471122 L3.69829283,4.65250885 Z M7.34012318,9.41041434 C7.449284,9.29560729 7.71653975,9.06599319 8.11177716,8.72721825 C8.48881478,8.41895807 8.84587576,8.08704222 9.18080022,7.7334785 C9.37736443,7.5166257 9.53753076,7.26938483 9.65508511,7.00134826 C9.7539123,6.77120805 9.8051297,6.5234439 9.80565174,6.2729822 C9.81488633,5.80682277 9.62449776,5.35893023 9.2824327,5.0421 C8.90177494,4.6996457 8.40109092,4.52169989 7.88969138,4.5471122 C7.38849837,4.52349835 6.89633259,4.68643607 6.50824255,5.00445835 C6.14060321,5.34646841 5.92338094,5.82016185 5.90409396,6.32191635 L5.88715521,6.51012464 L6.97688119,6.62304962 L6.97688119,6.41602049 C6.96128134,6.16414653 7.0489456,5.91678383 7.21966988,5.73094233 C7.3945683,5.56359867 7.63107887,5.47635558 7.87275264,5.49003573 C8.10294364,5.47815756 8.32820363,5.55957683 8.49760415,5.71588567 C8.64907367,5.85648277 8.73330081,6.05506706 8.72910035,6.26168971 C8.71132412,6.51926049 8.61324871,6.76477812 8.44866999,6.96370662 C8.09644153,7.38685935 7.69811429,7.769405 7.2610757,8.10424883 C6.9318553,8.36462373 6.62581345,8.65303354 6.34638343,8.96624277 C6.14205743,9.20081659 5.97970259,9.46886123 5.86645229,9.75859966 C5.79910198,9.93242141 5.76772812,10.1181034 5.77423023,10.3044037 L5.77423023,10.492612 L9.81318008,10.492612 L9.81318008,9.45746641 L7.2836607,9.45746641 L7.34012318,9.41041434 Z M13.8653045,7.65443102 C13.7375718,7.48683632 13.5734749,7.35041062 13.3853734,7.25542946 C13.5010149,7.16452223 13.6008532,7.05514517 13.6808604,6.93171119 C13.8284069,6.70847653 13.9063561,6.44646237 13.9048282,6.17887805 C13.9042719,5.8925249 13.8248265,5.61186128 13.6752141,5.36770034 C13.5165525,5.10838286 13.2874449,4.8995098 13.014603,4.76543383 C12.7294343,4.62123886 12.4138001,4.54765543 12.0942645,4.55087638 C11.6492731,4.53744383 11.214764,4.68741305 10.8727927,4.97246294 C10.5314472,5.2755697 10.3081446,5.68951267 10.242295,6.1412364 L10.2084175,6.32944468 L11.264266,6.51765297 L11.2943793,6.32944468 C11.314781,6.09070218 11.4141115,5.86555319 11.5766917,5.68953651 C11.7205487,5.55470429 11.9122844,5.4828881 12.1093212,5.49003573 C12.302006,5.47941364 12.4907729,5.54731541 12.6325402,5.67824401 C12.7607818,5.80565359 12.8291505,5.98136101 12.8207485,6.16193931 C12.8398093,6.37697111 12.7393474,6.58512243 12.559139,6.70397917 C12.3563602,6.83275672 12.1198442,6.89827361 11.8797071,6.89218747 L11.7912492,6.89218747 L11.6030409,6.87148456 L11.4807055,7.92921512 L11.7517254,7.85769597 C11.8920743,7.81754617 12.0368242,7.79479074 12.1827224,7.789941 C12.4235366,7.78006965 12.6577623,7.86994697 12.8301589,8.03837593 C12.998876,8.20763919 13.0895621,8.4394684 13.0804759,8.67828411 C13.0869456,8.93784478 12.9845853,9.18828628 12.7981635,9.36900851 C12.621647,9.55317358 12.3756218,9.65431725 12.1206137,9.64755677 C11.9124799,9.65563171 11.7095704,9.58123156 11.5559888,9.44052766 C11.3686018,9.23815777 11.249451,8.98208217 11.2153318,8.70839744 L11.1795722,8.53712789 L10.1444267,8.67451993 L10.1632475,8.86272822 C10.1979138,9.34176346 10.4164034,9.788858 10.7730423,10.1105492 C11.1410689,10.4365679 11.619781,10.6096045 12.1112033,10.5942445 C12.6560896,10.6083419 13.1842229,10.4052137 13.5792279,10.0296196 C13.9651792,9.67865186 14.1823586,9.1792079 14.1758482,8.6575812 C14.1866962,8.29797784 14.0774283,7.94500932 13.8653045,7.65443102 L13.8653045,7.65443102 Z" id="形状"></path>
        </g>
    </g>
</svg>