<?xml version="1.0" encoding="UTF-8"?>
<svg width="28px" height="28px" viewBox="0 0 28 28" version="1.1" xmlns="http://www.w3.org/2000/svg" xmlns:xlink="http://www.w3.org/1999/xlink">
    <!-- Generator: Sketch 63.1 (92452) - https://sketch.com -->
    <title>Stroke 1</title>
    <desc>Created with Sketch.</desc>
    <defs>
        <path d="M20.2339946,24 L5.76600537,24 C3.68608618,24 2,22.3139138 2,20.2339946 L2,5.76600537 C2,3.68608618 3.68608618,2 5.76600537,2 L20.2339946,2 C22.3137317,2 24,3.68608618 24,5.76600537 L24,20.2339946 C24,22.3139138 22.3137317,24 20.2339946,24 Z" id="path-1"></path>
        <filter x="-18.2%" y="-18.2%" width="145.5%" height="145.5%" filterUnits="objectBoundingBox" id="filter-2">
            <feOffset dx="1" dy="1" in="SourceAlpha" result="shadowOffsetOuter1"></feOffset>
            <feGaussianBlur stdDeviation="1.5" in="shadowOffsetOuter1" result="shadowBlurOuter1"></feGaussianBlur>
            <feColorMatrix values="0 0 0 0 0.894117647   0 0 0 0 0.933333333   0 0 0 0 0.980392157  0 0 0 1 0" type="matrix" in="shadowBlurOuter1"></feColorMatrix>
        </filter>
    </defs>
    <g id="问答系统修改" stroke="none" stroke-width="1" fill="none" fill-rule="evenodd">
        <g id="Stroke-1">
            <use fill="black" fill-opacity="1" filter="url(#filter-2)" xlink:href="#path-1"></use>
            <use fill="#FFFFFF" fill-rule="evenodd" xlink:href="#path-1"></use>
        </g>
        <g id="时间" transform="translate(5.000000, 4.000000)" fill="#94AAE1" fill-rule="nonzero">
            <path d="M1,6 L14.7964286,6 L14.7964286,7 L1,7 L1,6 Z M3.5,8.39107143 L5.06785714,8.39107143 L5.06785714,9.95892857 L3.5,9.95892857 L3.5,8.39107143 Z M7.24285714,8.39107143 L8.81071429,8.39107143 L8.81071429,9.95892857 L7.24285714,9.95892857 L7.24285714,8.39107143 Z M10.9875,8.39107143 L12.5553571,8.39107143 L12.5553571,9.95892857 L10.9875,9.95892857 L10.9875,8.39107143 Z" id="形状"></path>
            <path d="M3.5,12.1035714 L5.06785714,12.1035714 L5.06785714,13.6714286 L3.5,13.6714286 L3.5,12.1035714 Z M7.24285714,12.1035714 L8.81071429,12.1035714 L8.81071429,13.6714286 L7.24285714,13.6714286 L7.24285714,12.1035714 Z M10.9875,12.1035714 L12.5553571,12.1035714 L12.5553571,13.6714286 L10.9875,13.6714286 L10.9875,12.1035714 Z" id="形状"></path>
            <path d="M2.8570018,17 L13.1463488,17 C14.7175028,16.9946018 15.9904772,15.6624745 15.9977044,14.0161469 L15.9977044,3.9937138 C15.9956408,2.34353567 14.7211622,1.0054268 13.1463488,1 L2.8570018,1 C1.27998301,1.00217289 0.00207366016,2.3412322 0,3.9937138 L0,14.0161469 C0.00724439092,15.6647764 1.28364391,16.9978482 2.8570018,17 Z M1.30428342,14.0161469 L1.30428342,3.9937138 C1.30532046,3.09558686 1.99988904,2.36778208 2.8570018,2.36669542 L13.1463488,2.36669542 C14.0034616,2.36778208 14.6980302,3.09558686 14.6990672,3.9937138 L14.6990672,14.0161469 C14.6980302,14.9142739 14.0034616,15.6420786 13.1463488,15.6431653 L2.8570018,15.6431653 C1.99988904,15.6420786 1.30532046,14.9142739 1.30428342,14.0161469 Z" id="形状"></path>
            <path d="M4.5,4 C4.22463768,4 4,3.75510204 4,3.45490454 L4,0.545095458 C4,0.244897959 4.22463768,0 4.5,0 C4.77536232,0 5,0.244897959 5,0.545095458 L5,3.45490454 C5,3.75773535 4.77536232,4 4.5,4 Z M11.5,4 C11.2246377,4 11,3.75510204 11,3.45490454 L11,0.545095458 C11,0.244897959 11.2246377,0 11.5,0 C11.7753623,0 12,0.244897959 12,0.545095458 L12,3.45490454 C12,3.75773535 11.7753623,4 11.5,4 Z" id="形状"></path>
        </g>
    </g>
</svg>